<!DOCTYPE svg PUBLIC "-//W3C//DTD SVG 1.1//EN" "http://www.w3.org/Graphics/SVG/1.1/DTD/svg11.dtd">

<!-- Uploaded to: SVG Repo, www.svgrepo.com, Transformed by: SVG Repo Mixer Tools -->
<svg fill="#7e00e6" height="800px" width="800px" version="1.2" baseProfile="tiny" id="Layer_1" xmlns="http://www.w3.org/2000/svg" xmlns:xlink="http://www.w3.org/1999/xlink" viewBox="0 0 256 256" xml:space="preserve" stroke="#7e00e6">

<g id="SVGRepo_bgCarrier" stroke-width="0"/>

<g id="SVGRepo_tracerCarrier" stroke-linecap="round" stroke-linejoin="round"/>

<g id="SVGRepo_iconCarrier"> <g> <g> <g id="XMLID_3_"> <path id="XMLID_5_" d="M249.9,189.1h-16V129c0-55.9-47.3-101.4-105.4-101.4C70.4,27.6,23.2,73,23.2,129l0,8c0,12,0,35.3,0,52.2 h-16L7.2,129c0-64.7,54.4-117.4,121.3-117.4c66.9,0,121.4,52.7,121.4,117.4V189.1z"/> </g> <path id="XMLID_2_" d="M72.4,235.6H39.5v-94.4h32.9C89.4,185,72.4,235.6,72.4,235.6z"/> <path id="XMLID_1_" d="M184.1,141.2H217v94.4h-32.9C167.1,191.8,184.1,141.2,184.1,141.2z"/> </g> </g> </g>

</svg>